<svg width="254" height="172" viewBox="0 0 254 172" fill="none" xmlns="http://www.w3.org/2000/svg">
<path d="M40.5299 144.864C42.5315 143.256 43.6792 140.857 43.6792 138.284V135.31H38.945C33.0909 135.31 28.0669 131.315 26.7267 125.594L25.1632 118.922C21.6991 116.342 19.3549 112.609 18.5357 108.329C17.8299 104.643 18.3582 101.002 19.8233 97.8312C17.983 94.4585 14.4444 92.3232 10.5633 92.3232C4.7388 92.3227 0 97.0833 0 102.935V160.362C0 165.238 3.25861 169.464 7.92454 170.639C10.4373 171.272 13.0011 171.592 15.5446 171.592C22.271 171.592 27.5797 169.454 31.0892 167.439V158.504C31.0892 154.656 32.8057 151.07 35.7989 148.665L40.5299 144.864Z" fill="black"/>
<path d="M248.435 113.504C247.49 112.042 246.501 110.571 245.497 109.132C220.779 73.6972 186.709 57.7846 167.1 51.1764C166.772 53.4964 166.278 55.7741 165.597 57.9803C165.257 59.0816 164.089 59.6985 162.993 59.3577C161.895 59.0169 161.279 57.8472 161.619 56.7459C162.467 54.0006 163.008 51.1336 163.253 48.2014C163.255 48.1878 163.256 48.1742 163.257 48.1607C163.801 41.5488 162.821 34.603 160.34 27.9442C156.627 17.9794 150.018 9.80336 141.728 4.92173C133.58 0.122564 124.783 -0.901988 116.957 2.04014C100.641 8.17076 93.5559 29.7688 101.164 50.1852C104.484 59.0962 110.23 66.6861 117.387 71.6654L148.271 65.7012C149.4 65.4852 150.492 66.2247 150.709 67.3563C150.927 68.4889 150.188 69.5834 149.059 69.8015L32.9576 92.2217C25.9033 93.5839 21.2681 100.457 22.6249 107.542C23.2823 110.975 25.2309 113.944 28.1116 115.904C30.9924 117.864 34.4613 118.578 37.876 117.919L153.977 95.4983C155.107 95.2828 156.199 96.0218 156.416 97.1534C156.633 98.286 155.894 99.3805 154.765 99.5986L153.336 99.8747C159.84 104.068 166.118 108.673 172.044 113.62C178.748 119.217 185.122 125.34 190.989 131.819C191.543 132.43 191.685 133.312 191.351 134.068C191.017 134.823 190.272 135.31 189.448 135.31H47.8428V138.284C47.8428 142.132 46.1263 145.718 43.1332 148.123L38.4017 151.924C36.4 153.532 35.2524 155.931 35.2524 158.505V166.536H219.634C232.393 166.536 243.655 159.81 249.761 148.544C255.85 137.309 255.354 124.211 248.435 113.504Z" fill="black"/>
<path d="M197.554 29.1951C205.868 30.4942 213.72 33.3889 220.895 37.7976C228.07 42.2074 234.21 47.9121 239.144 54.7531C239.551 55.3178 240.187 55.6174 240.832 55.6174C241.255 55.6174 241.682 55.489 242.051 55.2213C242.982 54.5454 243.192 53.24 242.518 52.3058C237.259 45.0154 230.716 38.9365 223.07 34.2375C215.424 29.538 207.054 26.4534 198.196 25.0693C197.06 24.8934 195.995 25.671 195.818 26.8104C195.641 27.9498 196.419 29.0177 197.554 29.1951Z" fill="black"/>
<path d="M194.49 43.9133C201.085 44.9441 207.315 47.2401 213.009 50.7386C218.701 54.2376 223.574 58.7643 227.488 64.1919C227.895 64.7566 228.532 65.0562 229.177 65.0562C229.6 65.0562 230.027 64.9278 230.395 64.6601C231.327 63.9842 231.536 62.6793 230.862 61.7451C226.623 55.8676 221.348 50.9672 215.184 47.1785C209.018 43.3898 202.271 40.9033 195.131 39.7874C193.996 39.612 192.93 40.3892 192.754 41.5286C192.577 42.6685 193.354 43.7358 194.49 43.9133Z" fill="black"/>
</svg>
