<svg width="66" height="171" viewBox="0 0 66 171" fill="none" xmlns="http://www.w3.org/2000/svg">
<path d="M15.6066 24.3931H50.3937C54.0409 24.3931 57 21.5695 57 18.0895V6.72977C57 3.24947 54.0409 0.393066 50.3937 0.393066H15.6066C11.9592 0.393066 9 3.24947 9 6.72977V18.0895C9 21.5695 11.9592 24.3931 15.6066 24.3931Z" fill="black"/>
<path d="M10.6048 170.393H55.3952C61.2567 170.393 66 165.611 66 159.701V119.015C66 116.214 64.9157 113.652 63.1201 111.739C64.9157 109.86 66 107.264 66 104.463V100.603C66 97.7675 64.9157 95.2054 63.1201 93.3263C64.9157 91.4477 66 88.8856 66 86.0503V82.1901C66 79.389 64.9157 76.7927 63.1201 74.9139C64.9157 73.0009 66 70.439 66 67.6376V63.6407C66 52.5046 59.8676 42.2563 50.2454 37.0298L49.6694 31.3931H16.3645L15.7885 37.0298C6.1324 42.2563 0 52.5046 0 63.6407V67.6376C0 70.439 1.08426 73.0009 2.87988 74.9139C1.08426 76.7927 0 79.389 0 82.1901V86.0503C0 88.8856 1.08426 91.4477 2.87988 93.3263C1.08426 95.2054 0 97.7675 0 100.603V104.463C0 107.264 1.08426 109.86 2.87988 111.739C1.08426 113.652 0 116.214 0 119.015V159.701C0 165.611 4.7772 170.393 10.6048 170.393Z" fill="black"/>
</svg>
