<svg width="798" height="2773" viewBox="0 0 798 2773" fill="none" xmlns="http://www.w3.org/2000/svg">
<path d="M443.127 1.68591C443.127 106.383 506.17 214.832 560.121 301.754C628.902 412.568 745.932 585.917 686.865 718.817C642.724 818.136 587.729 907.911 511.374 986.387C457.793 1041.46 403.023 1095.57 350.507 1152.13C280.883 1227.11 198.047 1299.58 140.892 1383.95C98.8835 1445.96 67.5033 1540.2 94.3111 1617.94C117.476 1685.12 157.481 1743.6 199.389 1800.47C258.62 1880.86 314.843 1963.23 371.631 2045.83C420.92 2117.53 470.882 2192.61 505.957 2272.78C534.909 2338.96 537.149 2408.04 548.205 2478.06C559.833 2551.7 597.948 2749.33 491.875 2770.55" stroke="#E9257F" stroke-opacity="0.22" stroke-width="3" stroke-linecap="round"/>
<path d="M360.762 2C360.762 106.697 423.805 215.146 477.757 302.069C546.537 412.882 663.567 586.231 604.5 719.131C560.359 818.45 505.365 908.225 429.009 986.701C375.429 1041.77 320.658 1095.89 268.142 1152.44C198.518 1227.42 115.682 1299.89 58.5274 1384.27C16.5187 1446.28 -14.8614 1540.51 11.9464 1618.25C35.1111 1685.43 75.1164 1743.91 117.025 1800.79C176.255 1881.17 232.478 1963.55 289.266 2046.15C338.556 2117.84 388.517 2192.92 423.593 2273.1C452.544 2339.27 454.784 2408.35 465.841 2478.38C477.468 2552.02 515.584 2749.65 409.51 2770.86" stroke="#E9257F" stroke-opacity="0.22" stroke-width="3" stroke-linecap="round"/>
<path d="M535.762 2C535.762 106.697 598.805 215.146 652.757 302.069C721.537 412.882 838.567 586.231 779.5 719.131C735.359 818.45 680.365 908.225 604.009 986.701C550.429 1041.77 495.658 1095.89 443.142 1152.44C373.518 1227.42 290.682 1299.89 233.527 1384.27C191.519 1446.28 160.139 1540.51 186.946 1618.25C210.111 1685.43 250.116 1743.91 292.025 1800.79C351.255 1881.17 407.478 1963.55 464.266 2046.15C513.556 2117.84 563.517 2192.92 598.593 2273.1C627.544 2339.27 629.784 2408.35 640.841 2478.38C652.468 2552.02 690.584 2749.65 584.51 2770.86" stroke="#E9257F" stroke-opacity="0.22" stroke-width="3" stroke-linecap="round"/>
</svg>
