<svg width="308" height="247" viewBox="0 0 308 247" fill="none" xmlns="http://www.w3.org/2000/svg">
<path fill-rule="evenodd" clip-rule="evenodd" d="M240.252 165.524L213.721 169.028C213.359 169.075 213.005 169.071 212.665 169.011L114.182 159.346L91.0568 157.076L79.5764 155.949C77.89 157.488 76.33 159.235 74.9976 161.091C72.986 163.896 71.4443 167.003 70.7233 170.068C69.9208 173.469 70.1132 176.841 71.6952 179.794C73.1561 182.518 75.7216 184.757 79.6703 186.17C101.952 194.15 170.006 189.942 208.21 187.578C219.054 186.904 227.453 186.385 231.655 186.345C232.247 186.339 232.802 186.186 233.29 185.924L289.179 159.059L266.785 162.017L240.252 165.524ZM237.463 110.381L231.06 114.984C230.911 115.139 230.747 115.279 230.566 115.408L219.761 123.103L208.903 130.837C207.319 131.962 205.117 131.592 203.992 130.007C202.869 128.422 203.238 126.22 204.823 125.097L209.173 121.995L224.546 111.048L230.716 106.65C227.617 104.731 224.571 102.559 221.609 100.206L215.649 104.448L196.201 118.296C194.616 119.421 192.414 119.05 191.29 117.466C190.166 115.882 190.536 113.679 192.121 112.555L194.566 110.815L210.194 99.6888L216.066 95.5078C213.402 93.1096 210.842 90.5929 208.412 88.0127L202.632 92.1329L186.434 103.67L183.508 105.755C181.923 106.878 179.721 106.508 178.598 104.924C177.473 103.339 177.843 101.137 179.426 100.01L197.943 86.8228L203.685 82.7331C195.541 73.1427 189.378 63.1995 186.577 55.5268C186.286 54.7332 186.036 53.9575 185.823 53.2259C185.488 52.0851 184.625 51.237 183.58 50.8774C179.648 49.2735 175.726 49.2112 172.232 50.2595C169.028 51.2194 166.186 53.1173 164.033 55.5977L163.881 55.7848C161.82 58.2259 160.398 61.2321 159.907 64.4658C159.357 68.087 159.967 71.976 162.122 75.6541C163.383 78.8206 158.765 83.7599 152.427 88.1925C149.313 90.3695 145.781 92.3606 142.232 93.9668C138.721 95.5549 135.206 96.7598 132.09 97.3853C127.894 98.2273 124.671 98.1189 124.031 96.4416C123.341 94.6316 122.721 91.7262 122.047 88.5769C120.724 82.3922 119.21 75.3187 116.156 71.2473C112.896 66.8976 109.518 64.3452 106.188 63.4431C102.177 62.3533 98.4788 63.5165 95.2644 66.7015C92.5942 69.3476 90.291 73.4967 88.5038 78.9352C83.7356 93.451 82.2123 118.37 86.67 149.578L93.8915 150.287L117.384 152.593L213.171 161.992L249.937 157.132L286.701 152.276L295.484 151.114C296.127 149.741 296.714 148.282 297.219 146.814C298.983 141.69 299.873 136.062 298.872 133.094C296.681 126.597 291.74 120.577 285.743 116.84C280.015 113.266 273.255 111.701 266.834 113.58L266.625 113.65C265.917 113.907 265.297 114.11 264.798 114.255C256.146 116.736 246.715 114.859 237.463 110.381Z" fill="black"/>
<path d="M15.6066 62.3932H50.3937C54.0409 62.3932 57 59.5697 57 56.0896V44.7299C57 41.2496 54.0409 38.3932 50.3937 38.3932H15.6066C11.9592 38.3932 9 41.2496 9 44.7299V56.0896C9 59.5697 11.9592 62.3932 15.6066 62.3932Z" fill="black"/>
<path d="M10.6048 208.393H55.3952C61.2567 208.393 66 203.611 66 197.701V157.015C66 154.214 64.9157 151.652 63.1201 149.739C64.9157 147.861 66 145.264 66 142.463V138.603C66 135.768 64.9157 133.206 63.1201 131.326C64.9157 129.448 66 126.886 66 124.05V120.19C66 117.389 64.9157 114.793 63.1201 112.914C64.9157 111.001 66 108.439 66 105.638V101.641C66 90.5047 59.8676 80.2565 50.2454 75.0299L49.6694 69.3932H16.3645L15.7885 75.0299C6.1324 80.2565 0 90.5047 0 101.641V105.638C0 108.439 1.08426 111.001 2.87988 112.914C1.08426 114.793 0 117.389 0 120.19V124.05C0 126.886 1.08426 129.448 2.87988 131.326C1.08426 133.206 0 135.768 0 138.603V142.463C0 145.264 1.08426 147.861 2.87988 149.739C1.08426 151.652 0 154.214 0 157.015V197.701C0 203.611 4.7772 208.393 10.6048 208.393Z" fill="black"/>
</svg>
