<svg width="290" height="170" viewBox="0 0 290 170" fill="none" xmlns="http://www.w3.org/2000/svg">
<path d="M174.07 102.724H142.906C142.149 102.715 141.399 102.86 140.697 103.149C139.996 103.439 139.358 103.868 138.82 104.411C138.282 104.954 137.855 105.601 137.564 106.314C137.272 107.027 137.122 107.791 137.123 108.564V124.05C105.692 121.95 74.1608 121.95 42.7303 124.05V108.629C42.7304 107.857 42.5803 107.092 42.2889 106.379C41.9975 105.666 41.5705 105.02 41.0327 104.476C40.4948 103.933 39.8567 103.505 39.1555 103.215C38.4542 102.925 37.7037 102.781 36.9473 102.789H5.78305C5.02665 102.781 4.27609 102.925 3.57482 103.215C2.87355 103.505 2.23551 103.933 1.69765 104.476C1.15978 105.02 0.732789 105.666 0.441383 106.379C0.149977 107.092 -4.77392e-05 107.857 1.13951e-08 108.629V163.29C1.13951e-08 164.066 0.149581 164.834 0.440207 165.55C0.730832 166.267 1.15681 166.918 1.69381 167.466C2.23082 168.015 2.86835 168.45 3.56998 168.747C4.27161 169.043 5.02361 169.196 5.78305 169.196H36.9473C37.7067 169.196 38.4587 169.043 39.1603 168.747C39.862 168.45 40.4995 168.015 41.0365 167.466C41.5735 166.918 41.9995 166.267 42.2901 165.55C42.5807 164.834 42.7303 164.066 42.7303 163.29V148.001C74.1587 150.167 105.694 150.167 137.123 148.001V163.487C137.123 165.054 137.732 166.556 138.816 167.663C139.901 168.771 141.372 169.393 142.906 169.393H174.07C175.604 169.393 177.074 168.771 178.159 167.663C179.244 166.556 179.853 165.054 179.853 163.487V108.629C179.861 107.851 179.718 107.08 179.43 106.359C179.143 105.639 178.717 104.984 178.178 104.434C177.639 103.884 176.999 103.449 176.293 103.155C175.587 102.862 174.832 102.715 174.07 102.724Z" fill="black"/>
<path d="M288.18 121.395L266.002 99.4017C265.469 98.8674 264.836 98.4435 264.139 98.1542C263.442 97.865 262.695 97.7161 261.94 97.7161C261.186 97.7161 260.439 97.865 259.742 98.1542C259.045 98.4435 258.412 98.8674 257.879 99.4017L247.112 110.172C226.292 86.3768 203.914 63.9908 180.128 43.162L190.894 32.3913C191.977 31.3035 192.585 29.8309 192.585 28.2959C192.585 26.7608 191.977 25.2883 190.894 24.2005L168.717 2.07866C168.184 1.54434 167.551 1.12043 166.854 0.831195C166.157 0.541959 165.41 0.393066 164.655 0.393066C163.9 0.393066 163.153 0.541959 162.456 0.831195C161.759 1.12043 161.126 1.54434 160.593 2.07866L122.62 40.0662C122.086 40.5994 121.663 41.2327 121.374 41.93C121.084 42.6272 120.936 43.3746 120.936 44.1294C120.936 44.8843 121.084 45.6317 121.374 46.3289C121.663 47.0261 122.086 47.6595 122.62 48.1926L144.798 70.3789C145.886 71.462 147.358 72.0701 148.892 72.0701C150.427 72.0701 151.899 71.462 152.986 70.3789L163.752 59.6082C184.552 83.4017 206.908 105.788 230.672 126.619L219.906 137.389C219.372 137.922 218.948 138.556 218.659 139.253C218.37 139.95 218.221 140.698 218.221 141.452C218.221 142.207 218.37 142.955 218.659 143.652C218.948 144.349 219.372 144.982 219.906 145.516L242.019 167.702C243.107 168.785 244.579 169.393 246.113 169.393C247.647 169.393 249.119 168.785 250.207 167.702L288.18 129.714C288.735 129.173 289.177 128.527 289.479 127.812C289.78 127.098 289.936 126.33 289.936 125.554C289.936 124.779 289.78 124.011 289.479 123.297C289.177 122.582 288.735 121.935 288.18 121.395Z" fill="black"/>
</svg>
