<svg width="148" height="102" viewBox="0 0 148 102" fill="none" xmlns="http://www.w3.org/2000/svg">
<rect x="9.06842" y="18.5" width="129.863" height="47" rx="23.5" fill="#E9257F" stroke="#E9257F"/>
<rect x="4.39473" y="12.5" width="139.211" height="58" rx="29" stroke="#E9257F"/>
<rect x="0.5" y="7.5" width="147" height="68" rx="34" stroke="#E9257F"/>
<path d="M103.86 52.8768L104.7 54.0192L114.42 40.8L104.7 27.5808L103.86 28.7232L112.14 39.984H83.58V41.616H112.14L103.86 52.8768Z" fill="white"/>
<path d="M33.2305 49V34.2036H36.3271V46.4468H42.7974V49H33.2305ZM44.6328 49V34.2036H47.7295V49H44.6328ZM50.1904 49V34.2036H56.3018C59.624 34.2036 61.5928 35.9673 61.5928 38.9409V38.9614C61.5928 40.9097 60.5571 42.5298 58.9165 43.1758L62.0337 49H58.5269L55.7686 43.6372H53.2871V49H50.1904ZM53.2871 41.2891H55.9634C57.5015 41.2891 58.4243 40.4175 58.4243 38.9614V38.9409C58.4243 37.5259 57.4502 36.6235 55.9224 36.6235H53.2871V41.2891ZM63.6436 49V34.2036H73.4463V36.7568H66.7402V40.3047H73.0669V42.7246H66.7402V46.4468H73.4463V49H63.6436Z" fill="white"/>
</svg>
