<svg width="70" height="39" viewBox="0 0 70 39" fill="none" xmlns="http://www.w3.org/2000/svg">
<path id="Vector" d="M0.207107 8.09808L0.207107 0.695056L6.75402 0.695056L6.75402 8.09808L0.207107 8.09808ZM8.96112 8.09808L8.96112 0.695056L55.0375 0.695058C49.8546 2.37381 45.0188 4.87818 40.6046 8.09808L8.96112 8.09808ZM44.87 8.09808C52.2601 3.50215 60.7413 0.832662 69.7929 0.722581L69.7929 8.09808L44.87 8.09808ZM0.207107 23.5058L0.207107 16.1028L6.75402 16.1028L6.75402 23.5058L0.207107 23.5058ZM8.96112 23.5058L8.96112 16.1028L37.5047 16.1028C34.876 18.3319 32.4209 20.8088 30.2138 23.5058L8.96112 23.5058ZM33.1897 23.5058C35.6448 20.7537 38.3231 18.2769 41.1997 16.1028L56.3023 16.1028C51.6153 17.7815 47.2755 20.3134 43.382 23.5058L33.1897 23.5058ZM47.3251 23.5058C53.8472 18.9374 61.5349 16.2404 69.7681 16.1303L69.7681 23.5058L47.3251 23.5058ZM0.207106 38.886L0.207106 31.483L6.75402 31.483L6.75402 38.886L0.207106 38.886ZM8.96112 38.886L8.96112 31.483L28.2051 31.483C26.494 33.7947 24.9812 36.299 23.5925 38.886L8.96112 38.886ZM26.1716 38.886C27.6595 36.2715 29.321 33.7947 31.1562 31.483L40.5798 31.483C38.2735 33.7121 36.1655 36.189 34.2808 38.886L26.1716 38.886ZM37.1079 38.886C39.191 36.1339 41.5717 33.6571 44.126 31.483L57.8646 31.483C53.6488 33.1892 49.7802 35.6936 46.4571 38.886L37.1079 38.886ZM50.0281 38.886C55.5831 34.3726 62.4028 31.6481 69.7681 31.5105L69.7681 38.886L50.0281 38.886Z" fill="black"/>
</svg>
