<svg width="250" height="102" viewBox="0 0 250 102" fill="none" xmlns="http://www.w3.org/2000/svg">
<rect x="14.9737" y="18.5" width="220.053" height="47" rx="23.5" fill="#E9257F" stroke="#E9257F"/>
<rect x="6.81769" y="12.5" width="236.365" height="62" rx="31" stroke="#E9257F"/>
<rect x="0.5" y="7.5" width="249" height="72" rx="36" stroke="#E9257F"/>
<path d="M181.962 52.8766L183.15 54.019L196.894 40.7998L183.15 27.5806L181.962 28.723L193.67 39.9838H153.287V41.6158H193.67L181.962 52.8766Z" fill="white"/>
<path d="M40.6343 49.2563C37.1172 49.2563 34.8511 47.6465 34.6768 44.9189L34.6665 44.7549H37.5889L37.6094 44.8677C37.8042 46.0161 39.0244 46.7339 40.7163 46.7339C42.4287 46.7339 43.5054 45.9854 43.5054 44.8574V44.8472C43.5054 43.8423 42.7773 43.3398 40.9419 42.9604L39.3833 42.6528C36.4609 42.0684 34.9844 40.6738 34.9844 38.4487V38.4385C34.9844 35.7314 37.3428 33.9473 40.624 33.9473C44.0488 33.9473 46.1509 35.6597 46.2944 38.2539L46.3047 38.4487H43.3823L43.3721 38.3257C43.2183 37.167 42.1519 36.4595 40.624 36.4595C39.0347 36.4697 38.0811 37.1978 38.0811 38.2539V38.2642C38.0811 39.1973 38.8398 39.7407 40.542 40.0791L42.1108 40.397C45.2075 41.0122 46.6021 42.2734 46.6021 44.6011V44.6113C46.6021 47.4517 44.3667 49.2563 40.6343 49.2563ZM47.853 39.874L48.5913 34.2036H51.4214L49.9243 39.874H47.853ZM56.8149 49.2256C53.4517 49.2256 51.4111 47.0415 51.4111 43.5244V43.5142C51.4111 40.0176 53.4722 37.7822 56.6919 37.7822C59.9116 37.7822 61.9316 39.9663 61.9316 43.2886V44.2114H54.3643C54.395 45.9648 55.3486 46.9902 56.8765 46.9902C58.1069 46.9902 58.8555 46.3135 59.0708 45.6982L59.0913 45.6367H61.8394L61.8086 45.7495C61.4702 47.3696 59.9526 49.2256 56.8149 49.2256ZM56.7432 40.0176C55.5127 40.0176 54.5898 40.8379 54.395 42.3247H59.0605C58.876 40.8071 57.9839 40.0176 56.7432 40.0176ZM63.48 49V38.0078H66.4741V39.8125H66.5356C67.0996 38.5513 68.2275 37.7822 69.8887 37.7822C72.3086 37.7822 73.6826 39.3306 73.6826 41.9043V49H70.6885V42.5195C70.6885 41.084 70.0117 40.2637 68.6685 40.2637C67.3252 40.2637 66.4741 41.248 66.4741 42.6836V49H63.48ZM79.9478 49.2256C77.5073 49.2256 76.3589 48.2822 76.3589 45.9238V40.2637H74.8311V38.0078H76.3589V35.3213H79.3838V38.0078H81.3936V40.2637H79.3838V45.5957C79.3838 46.6211 79.8452 46.9697 80.7476 46.9697C81.0142 46.9697 81.209 46.939 81.3936 46.9185V49.1128C81.0552 49.1641 80.5732 49.2256 79.9478 49.2256ZM83.0444 49V38.0078H86.0386V39.9253H86.1001C86.4282 38.5718 87.3203 37.7822 88.6021 37.7822C88.9302 37.7822 89.2378 37.8335 89.4634 37.895V40.5303C89.2173 40.4277 88.8071 40.3662 88.3765 40.3662C86.8999 40.3662 86.0386 41.248 86.0386 42.8477V49H83.0444ZM93.6982 49.1743C91.4937 49.1743 90.0068 47.79 90.0068 45.8521V45.8315C90.0068 43.832 91.5552 42.6631 94.2827 42.4888L97 42.3247V41.6479C97 40.6738 96.3643 40.0688 95.1953 40.0688C94.0776 40.0688 93.4009 40.5918 93.2573 41.2993L93.2368 41.3916H90.499L90.5093 41.2686C90.6733 39.2383 92.4165 37.7822 95.3184 37.7822C98.1587 37.7822 99.9941 39.2485 99.9941 41.4634V49H97V47.3594H96.9385C96.313 48.4873 95.144 49.1743 93.6982 49.1743ZM92.9702 45.6982C92.9702 46.5083 93.6367 46.9902 94.6724 46.9902C96.0156 46.9902 97 46.1289 97 44.9805V44.1909L94.7339 44.3345C93.5752 44.4062 92.9702 44.8984 92.9702 45.6777V45.6982ZM99.7993 36.7773L102.25 33.2705H104.711L107.182 36.7773H105.019L103.46 34.6343L101.963 36.7773H99.7993ZM101.994 49V38.0078H104.988V49H101.994ZM106.998 49V38.0078H109.992V39.8125H110.053C110.617 38.5513 111.745 37.7822 113.406 37.7822C115.826 37.7822 117.2 39.3306 117.2 41.9043V49H114.206V42.5195C114.206 41.084 113.529 40.2637 112.186 40.2637C110.843 40.2637 109.992 41.248 109.992 42.6836V49H106.998ZM124.101 49.2256C120.738 49.2256 118.697 47.0415 118.697 43.5244V43.5142C118.697 40.0176 120.758 37.7822 123.978 37.7822C127.198 37.7822 129.218 39.9663 129.218 43.2886V44.2114H121.65C121.681 45.9648 122.635 46.9902 124.163 46.9902C125.393 46.9902 126.142 46.3135 126.357 45.6982L126.377 45.6367H129.125L129.095 45.7495C128.756 47.3696 127.239 49.2256 124.101 49.2256ZM124.029 40.0176C122.799 40.0176 121.876 40.8379 121.681 42.3247H126.347C126.162 40.8071 125.27 40.0176 124.029 40.0176ZM130.766 49V38.0078H133.76V39.9253H133.822C134.15 38.5718 135.042 37.7822 136.324 37.7822C136.652 37.7822 136.959 37.8335 137.185 37.895V40.5303C136.939 40.4277 136.529 40.3662 136.098 40.3662C134.622 40.3662 133.76 41.248 133.76 42.8477V49H130.766Z" fill="white"/>
</svg>
